<svg width="48" height="45" viewBox="0 0 48 45" fill="none" xmlns="http://www.w3.org/2000/svg">
<ellipse cx="24" cy="22.7182" rx="24" ry="21.8659" fill="#9E41D6"/>
<path fill-rule="evenodd" clip-rule="evenodd" d="M29 14.5186H17C15.89 14.5186 15 15.3385 15 16.3407V29.0958C15 30.098 15.89 30.918 17 30.918H31C32.1 30.918 33 30.098 33 29.0958V18.1629L29 14.5186ZM24 29.0958C22.34 29.0958 21 27.875 21 26.3626C21 24.8502 22.34 23.6294 24 23.6294C25.66 23.6294 27 24.8502 27 26.3626C27 27.875 25.66 29.0958 24 29.0958ZM17 19.985H27V16.3407H17V19.985Z" fill="white"/>
<mask id="mask0_6_4663" style="mask-type:alpha" maskUnits="userSpaceOnUse" x="15" y="14" width="18" height="17">
<path fill-rule="evenodd" clip-rule="evenodd" d="M29 14.5186H17C15.89 14.5186 15 15.3385 15 16.3407V29.0958C15 30.098 15.89 30.918 17 30.918H31C32.1 30.918 33 30.098 33 29.0958V18.1629L29 14.5186ZM24 29.0958C22.34 29.0958 21 27.875 21 26.3626C21 24.8502 22.34 23.6294 24 23.6294C25.66 23.6294 27 24.8502 27 26.3626C27 27.875 25.66 29.0958 24 29.0958ZM17 19.985H27V16.3407H17V19.985Z" fill="white"/>
</mask>
<g mask="url(#mask0_6_4663)">
</g>
</svg>
