<?xml version="1.0" encoding="utf-8"?>
<!-- Svg Vector Icons : http://www.onlinewebfonts.com/icon -->
<!DOCTYPE svg PUBLIC "-//W3C//DTD SVG 1.1//EN" "http://www.w3.org/Graphics/SVG/1.1/DTD/svg11.dtd">
<svg version="1.1" xmlns="http://www.w3.org/2000/svg" xmlns:xlink="http://www.w3.org/1999/xlink" x="0px" y="0px" viewBox="0 0 1000 1000" enable-background="new 0 0 1000 1000" xml:space="preserve">
<metadata> Svg Vector Icons : http://www.onlinewebfonts.com/icon </metadata>
<g><g transform="translate(0.000000,511.000000) scale(0.100000,-0.100000)"><path d="M3337.5,4616c-42.6-54.7-42.6-66.9-42.6-1669.5V1331.7l-60.8-12.1c-54.7-12.2-62.8-26.3-131.7-243.1c-38.5-125.6-70.9-241.1-70.9-253.3c0-14.2-12.2-24.3-26.3-24.3c-28.4,0-1171.1,338.4-1181.2,350.5c-4,4.1,24.3,109.4,62.8,237.1c38.5,127.6,70.9,249.2,70.9,267.4c0,20.3-22.3,50.6-50.7,68.9c-70.9,46.6-139.8,14.2-170.2-77c-10.1-36.5-168.2-559.2-346.5-1160.9c-180.3-601.7-541-1805.2-800.3-2674.4C330.8-3060.8,110-3796.3,103.9-3826.7C75.5-3934.1,209.2-4009,280.2-3926c16.2,18.2,68.9,166.1,115.5,328.2c48.6,162.1,91.2,295.8,93.2,299.9c4.1,4.1,271.5-72.9,595.7-170.2c411.3-123.6,589.6-184.4,589.6-204.6c0-16.2-36.5-149.9-81-299.9c-44.6-149.9-81-293.8-81-324.2c0-66.9,79-107.4,147.9-77c40.5,18.2,133.7,316.1,822.6,2621.7C2910-321.6,3266.6,867.8,3276.7,890c8.1,22.3,16.2-1059.6,16.2-2405l2-2447.5h-50.6c-66.9,0-164.1-50.7-180.3-91.2c-6.1-18.2-12.2-91.2-12.2-160.1c0-99.3,10.1-139.8,42.6-182.3l40.5-52.7h362.7h362.7l42.5,54.7c40.5,50.7,44.6,75,36.5,214.8l-10.1,156l557.2,482.2c308,263.4,569.3,488.3,583.5,496.4c18.2,10.1,198.6-131.7,559.2-443.7c293.8-253.3,536.9-464,540.9-468c4-2-16.2-28.3-44.6-54.7c-50.7-46.6-54.7-64.8-54.7-200.6c0-129.7,6.1-154,46.6-192.5c44.6-42.6,64.8-44.6,403.2-44.6h358.6l40.5,52.7c32.4,42.6,42.5,83.1,42.5,184.4c0,117.5-6.1,137.8-58.8,188.4l-56.7,58.8l545,451.8c299.8,249.2,553.1,453.8,559.2,455.9c8.1,4.1,271.5-200.6,587.6-451.8l573.4-457.9l-50.7-46.6c-46.6-44.6-52.7-64.8-52.7-198.6c0-129.7,6.1-154,46.6-192.5c44.6-42.6,64.8-44.6,397.1-44.6c342.4,0,348.5,0,397.1,50.7c42.5,42.5,50.7,66.9,50.7,178.3c0,162.1-44.6,231-164.1,249.2l-79,14.2l-4,2642l-6.1,2644l-48.6,38.5c-32.4,26.3-79,38.5-152,38.5c-147.9,0-194.5-50.6-194.5-208.7v-115.5H7985.4H6719.1V2825v1744.5l-50.7,48.6c-40.5,42.6-68.9,50.7-160.1,50.7c-95.2,0-115.5-8.1-152-52.7c-38.5-48.6-42.5-81-42.5-364.7v-312H5007H3700.2v312c0,283.7-4.1,316.1-42.5,364.7c-36.5,46.6-56.7,52.7-160.1,52.7C3394.2,4668.7,3374,4662.6,3337.5,4616z M5564.2,3068.1l-557.2-545l-182.3,176.3c-99.3,97.3-352.5,342.4-561.2,545l-376.8,370.8H5003l1118.4-2L5564.2,3068.1z M4462,1998.3c-202.6-198.6-455.9-445.7-563.3-551.1l-198.5-190.4v1100.2v1100.2l563.2-551.1l565.3-549.1L4462,1998.3z M6309.8,1809.9l-6.1-549.1l-563.2,543l-563.3,545l563.3,549.1l563.2,551.1l6.1-545C6311.8,2604.1,6311.8,2111.8,6309.8,1809.9z M5556.1,1649.8c299.9-291.8,549.1-536.9,551.1-547c4-12.2-409.3-20.3-1114.4-20.3H3872.4l557.2,547c305.9,299.9,563.2,545,569.3,545C5007,2176.6,5258.3,1939.6,5556.1,1649.8z M2393.4,748.2c289.7-85.1,532.9-162.1,541-170.2c14.2-12.2-109.4-457.9-131.7-482.2c-10.1-8.1-1171.1,332.3-1187.3,350.5c-6.1,6.1,79,318.1,129.7,468c6.1,16.2,26.3,18.2,64.8,8.1C1840.2,912.3,2103.6,835.3,2393.4,748.2z M6050.4,750.2c0-6.1-233-198.6-520.7-429.5C5051.6-66.3,5007-96.7,4968.5-72.3c-42.5,28.4-928,699-1031.3,784.1l-58.8,46.6h1086C5562.2,758.3,6050.4,754.3,6050.4,750.2z M9126.1,701.6c-249.2-214.8-1112.3-915.8-1128.6-915.8c-12.1,0-1086,836.8-1235.9,964.4c-4,4,541,8.1,1211.6,8.1h1219.7L9126.1,701.6z M6305.7-1081.3c-16.2-14.2-1088,812.4-1079.9,832.7c2,10.1,247.2,212.7,540.9,451.8l536.9,431.6l6.1-853C6311.8-688.3,6309.8-1075.3,6305.7-1081.3z M4273.6,150.5c285.7-216.8,520.7-401.2,520.7-407.2c0-12.2-936.1-778-1057.6-865.1c-34.4-26.3-36.5,8.1-36.5,836.8c0,725.3,4.1,861.1,28.4,846.9C3742.7,553.7,3989.9,367.3,4273.6,150.5z M7292.5,20.8C7568-198,7788.8-386.4,7782.7-396.5c-12.1-20.3-994.8-832.7-1037.3-859.1c-20.3-12.1-26.3,166.1-26.3,861.1c0,832.7,2,873.3,36.5,844.9C6773.8,434.2,7016.9,239.7,7292.5,20.8z M9251.6-366.1c0-461.9-4-840.8-10.1-840.8c-6.1,0-243.1,184.4-526.8,409.3c-437.6,346.4-512.6,413.3-488.3,437.6c58.8,58.8,994.8,830.7,1011,832.7C9245.6,474.7,9251.6,95.8,9251.6-366.1z M2136,57.3C2456.2-37.9,2723.6-121,2729.7-125c10.1-6.1-115.5-468-133.7-490.3c-8.1-8.1-1173.1,342.4-1187.3,358.6c-12.2,10.1,123.6,488.3,137.8,488.3C1550.5,231.6,1815.9,152.5,2136,57.3z M5631.1-882.8c330.3-251.2,599.7-461.9,599.7-470c2-10.1-536.9-16.2-1197.4-16.2c-1110.3,0-1197.4,2-1167,32.4c89.1,91.2,1122.5,915.8,1142.7,913.8C5021.2-424.9,5300.8-631.5,5631.1-882.8z M1933.4-649.8C2251.5-745,2517-828.1,2521-832.1c8.1-8.1-113.5-429.5-135.7-468c-8.1-16.2-194.5,32.4-599.7,154C1220.3-976,1198-967.9,1204-921.3c8.1,70.9,125.6,443.7,139.8,443.7C1349.9-477.6,1615.4-554.6,1933.4-649.8z M8532.4-961.8c257.3-202.6,470.1-378.9,472.1-389c4-10.1-382.9-18.2-986.7-18.2c-547,0-994.8,6.1-992.8,16.2c0,8.1,220.8,194.5,488.3,413.3C7940.8-589,8007.6-542.4,8034-566.7C8052.2-580.9,8277.1-759.2,8532.4-961.8z M1734.9-1358.9c316.1-95.2,577.4-176.3,581.5-178.3c4-4.1-2-34.4-12.2-66.9c-12.2-32.4-44.6-137.8-72.9-235c-28.4-99.3-64.8-178.3-77-178.3c-38.5,0-1136.6,328.2-1156.9,346.4c-24.3,22.3,109.4,484.2,139.8,484.2C1151.4-1186.7,1418.8-1263.7,1734.9-1358.9z M6253-1689.2c0-22.3-1146.8-1002.9-1167-998.9c-26.3,4-1160.9,980.6-1160.9,1000.9c-2,8.1,522.7,14.2,1163,14.2C5728.3-1672.9,6253-1681.1,6253-1689.2z M9211.1-1681.1c0-6.1-267.4-231-591.6-500.4c-326.2-269.5-609.8-504.5-628.1-520.7c-32.4-26.3-89.2,14.2-648.3,462c-356.6,283.7-615.9,506.5-620,528.8c-6.1,38.5,22.3,38.5,1239.9,38.5C8649.9-1672.9,9211.1-1677,9211.1-1681.1z M4287.8-2329.4c283.7-245.1,538.9-464,565.3-488.3l46.6-46.6l-77-68.9c-44.6-38.5-314-273.5-599.7-520.7l-522.7-449.8v1037.3c0,984.7,2,1035.3,36.5,1009C3754.9-1873.5,4004.1-2086.3,4287.8-2329.4z M1542.4-2068c289.7-87.1,534.9-164.1,545-174.2c22.3-18.2-109.4-484.2-137.8-484.2c-18.2,0-1173.1,342.4-1181.2,350.5c-2,4.1,28.4,115.5,68.9,251.3c70.9,245.1,70.9,245.1,125.6,228.9C991.3-1903.9,1252.7-1980.9,1542.4-2068z M6309.8-3312.1l-6.1-443.7l-506.5,439.7c-277.6,241.1-504.5,445.7-502.4,453.8c2,10.1,228.9,212.7,506.5,449.8l502.4,433.6l6.1-445.7C6311.8-2667.8,6311.8-3066.9,6309.8-3312.1z M9247.6-3314.1l-6.1-445.7l-540.9,431.6c-297.9,235-538.9,435.6-536.9,443.7c2,8.1,245.1,214.8,540.9,459.9l536.9,445.7l6.1-445.7C9249.6-2667.8,9249.6-3068.9,9247.6-3314.1z M7256-2483.4c267.5-214.8,488.3-395.1,492.3-403.2c4-14.2-996.9-853-1019.1-853c-6.1,0-10.1,378.9-10.1,842.8c0,672.7,6.1,838.8,26.3,824.6C6757.5-2084.2,6988.5-2268.6,7256-2483.4z M1311.4-2767c305.9-91.2,561.2-172.2,569.3-180.3c14.2-12.1-109.4-457.9-131.7-480.2c-8.1-10.1-1171.1,332.3-1187.3,348.5c-6.1,6.1,83.1,332.3,131.7,472.1c4,14.2,20.3,22.3,34.4,16.2C742.1-2596.8,1005.5-2675.9,1311.4-2767z"/></g></g>
</svg>