<?xml version="1.0" encoding="utf-8"?>
<!-- Svg Vector Icons : http://www.onlinewebfonts.com/icon -->
<!DOCTYPE svg PUBLIC "-//W3C//DTD SVG 1.1//EN" "http://www.w3.org/Graphics/SVG/1.1/DTD/svg11.dtd">
<svg version="1.1" xmlns="http://www.w3.org/2000/svg" xmlns:xlink="http://www.w3.org/1999/xlink" x="0px" y="0px" viewBox="0 0 1000 1000" enable-background="new 0 0 1000 1000" xml:space="preserve">
<metadata> Svg Vector Icons : http://www.onlinewebfonts.com/icon </metadata>
<g><g transform="translate(0.000000,512.000000) scale(0.100000,-0.100000)"><path d="M4044.1,5010.7c-26.8-3.8-99.5-17.2-162.7-28.7c-168.4-28.7-342.5-88-526.3-179.9c-470.8-235.4-832.5-654.5-1008.5-1167.4c-44-128.2-101.4-438.2-101.4-549.2V3032h151.2h149.3l11.5,158.8c44,549.2,357.9,1041.1,840.1,1312.8c122.5,68.9,183.7,68.9,275.6-1.9c99.5-78.5,103.3-112.9,103.3-819.1V3032h155h153.1l-5.7,685.1c-5.7,677.5-5.7,683.2-51.7,769.3c-24.9,47.8-63.2,111-82.3,139.7c-21,30.6-32.5,59.3-24.9,67c17.2,17.2,614.3,17.2,631.5,0c7.7-7.7-3.8-36.4-24.9-67c-19.1-28.7-57.4-91.9-82.3-139.7c-45.9-86.1-45.9-91.9-51.7-769.3l-5.7-685.1h153.1h155v650.7c0,706.2,3.8,740.6,103.3,819.1c91.9,70.8,153.1,70.8,275.6,3.8c474.6-267.9,796.1-773.1,840.1-1324.3l11.5-149.3h149.2h151.2v53.6c0,111-57.4,421-101.4,549.2c-233.5,681.3-803.8,1192.2-1496.5,1341.5C4493.8,5005,4134.1,5026,4044.1,5010.7z"/><path d="M1948.6,2970.7c40.2-183.7,189.5-344.5,444-478.4c926.2-488,2665.8-501.4,3632.2-24.9c300.5,147.4,461.2,308.1,499.5,505.2l13.4,59.3h-153.1h-151.2l-22.9-65.1c-158.8-436.3-1699.4-683.2-2941.4-470.8c-547.3,93.8-974.1,294.7-1014.3,480.3l-13.4,55.5h-153.1h-153.1L1948.6,2970.7z"/><path d="M2398.3,1948.8c0-174.1,13.4-214.3,97.6-304.3c45.9-49.8,57.4-82.3,74.6-229.6c59.3-484.2,258.3-941.5,539.7-1245.8l53.6-57.4l-3.8-331.1l-5.7-331.1L2540-824.1c-336.8-149.3-711.9-308.1-832.5-352.1C810-1511.1,320.1-1937.9,155.5-2531.1c-40.2-143.5-42.1-189.4-49.7-1196.1L100-4775.9h153.1h155V-3775c0,1115.7,3.8,1155.9,126.3,1404.7c139.7,283.2,419.1,522.4,853.5,732.9l235.4,114.8l5.7-1626.6l3.8-1626.6H1786h153.1v1680.2v1678.3l292.8,130.1c158.8,70.8,296.6,128.2,306.2,128.2c7.7,0,13.4-813.3,13.4-1808.4v-1808.4h153.1h153.1v1883.1v1881.2l199,89.9c109.1,47.8,204.8,88,214.3,86.1c9.6,0,206.7-223.9,438.2-495.6c248.8-292.8,444-505.2,474.6-518.6c44-19.1,65.1-17.2,109.1,3.9c36.4,19.1,786.5,866.9,891.8,1008.5c1.9,3.8,99.5-42.1,216.2-99.5l212.4-107.2V-2910v-1865.8h153.1h153.1v1923.3c0,1425.7-5.7,1934.8-22.9,1971.1c-15.3,36.3-95.7,86.1-306.2,193.3l-283.2,143.5v331c0,281.3,3.8,336.8,30.6,357.9c47.8,38.3,189.4,227.7,258.3,344.5c147.4,250.7,266,610.5,304.3,926.2c19.1,147.4,28.7,179.9,74.6,229.6c84.2,89.9,97.6,130.1,97.6,304.3v164.6h-153.1h-153.1v-118.7c0-111-3.8-124.4-70.8-191.4c-68.9-68.9-68.9-74.6-86.1-279.4c-38.3-511-243-976-543.5-1245.8c-461.2-409.5-1199.9-409.5-1661.1,0c-296.6,266-511,750.2-541.6,1222.8c-11.5,195.2-30.6,250.7-109.1,323.4c-44,40.2-49.8,63.2-49.8,168.4v120.6h-153.1h-153.1V1948.8z M4625.9-1025c-206.7-243-382.7-440.1-390.4-440.1c-7.7,0-183.7,197.1-390.4,438.2L3470-588.7v223.9c0,172.2,5.7,222,24.9,214.3c267.9-118.7,413.4-158.8,631.5-178c256.4-19.1,633.4,55.5,807.6,160.8l57.4,36.4l5.7-227.7l5.7-227.7L4625.9-1025z"/><path d="M7144.3,123.2v-459.3h918.6h918.6v459.3v459.3h-918.6h-918.6V123.2z M8675.2,123.2V-29.9h-612.4h-612.4v153.1v153.1h612.4h612.4V123.2z"/><path d="M6225.7-2249.8v-2526.1h1837.1H9900v2526.1V276.3h-306.2h-306.2V123.2V-29.9h153.1h153.1v-2219.9v-2219.9H8062.9h-1531v2219.9V-29.9H6685h153.1v153.1v153.1h-306.2h-306.2V-2249.8z"/><path d="M6838.1-795.4v-153.1h153.1h153.1v153.1v153.1h-153.1h-153.1V-795.4z"/><path d="M7450.5-795.4v-153.1h918.6h918.6v153.1v153.1h-918.6h-918.6V-795.4z"/><path d="M6838.1-1407.8v-153.1h153.1h153.1v153.1v153.1h-153.1h-153.1V-1407.8z"/><path d="M7450.5-1407.8v-153.1h918.6h918.6v153.1v153.1h-918.6h-918.6V-1407.8z"/><path d="M6838.1-2020.2v-153.1h153.1h153.1v153.1v153.1h-153.1h-153.1V-2020.2z"/><path d="M7450.5-2020.2v-153.1h918.6h918.6v153.1v153.1h-918.6h-918.6V-2020.2z"/><path d="M4082.4-2326.4v-153.1h153.1h153.1v153.1v153.1h-153.1h-153.1V-2326.4z"/><path d="M6838.1-2632.5v-153.1h153.1h153.1v153.1v153.1h-153.1h-153.1V-2632.5z"/><path d="M7450.5-2632.5v-153.1h918.6h918.6v153.1v153.1h-918.6h-918.6V-2632.5z"/><path d="M4082.4-2938.7v-153.1h153.1h153.1v153.1v153.1h-153.1h-153.1V-2938.7z"/><path d="M4082.4-3551.1v-153.1h153.1h153.1v153.1v153.1h-153.1h-153.1V-3551.1z"/><path d="M8522.1-3704.2v-153.1h382.7h382.7v153.1v153.1h-382.7h-382.7V-3704.2z"/></g></g>
</svg>