<svg width="73" height="72" viewBox="0 0 73 72" fill="none" xmlns="http://www.w3.org/2000/svg">
<path d="M36.5 0C46.0478 0 55.2045 3.79285 61.9558 10.5442C68.7072 17.2955 72.5 26.4522 72.5 36C72.5 45.5478 68.7072 54.7045 61.9558 61.4558C55.2045 68.2072 46.0478 72 36.5 72C26.9522 72 17.7955 68.2072 11.0442 61.4558C4.29285 54.7045 0.5 45.5478 0.5 36C0.5 26.4522 4.29285 17.2955 11.0442 10.5442C17.7955 3.79285 26.9522 0 36.5 0ZM38.408 15.3874C34.2217 15.3874 30.9406 16.5754 28.508 18.9514C26.0189 21.3274 24.8309 24.6086 24.8309 28.7949H31.28C31.28 26.4189 31.7326 24.552 32.6943 23.2509C33.7691 21.6669 35.5229 20.9314 38.012 20.9314C39.9354 20.9314 41.4629 21.4406 42.5377 22.5154C43.556 23.5903 44.1217 25.0611 44.1217 26.928C44.1217 28.3423 43.6126 29.7 42.5943 30.9446L41.9154 31.7366C38.2383 35.0177 36.032 37.3937 35.2966 38.9211C34.5046 40.4486 34.1651 42.3154 34.1651 44.4651V45.2571H40.6709V44.4651C40.6709 43.1074 40.9537 41.9194 41.5194 40.788C42.0286 39.7697 42.764 38.808 43.7823 37.9594C46.4977 35.5834 48.1383 34.056 48.6474 33.4903C50.0051 31.68 50.7406 29.3606 50.7406 26.532C50.7406 23.0811 49.6091 20.3657 47.3463 18.3857C45.0834 16.3491 42.0851 15.3874 38.408 15.3874ZM37.3897 48.0291C36.2363 47.9979 35.1174 48.4251 34.2783 49.2171C33.864 49.6074 33.5385 50.0821 33.3237 50.6092C33.109 51.1363 33.0101 51.7033 33.0337 52.272C33.0337 53.5166 33.4297 54.5349 34.2783 55.3269C35.1111 56.1352 36.2292 56.5824 37.3897 56.5714C38.6343 56.5714 39.6526 56.1754 40.5011 55.3834C40.9242 54.9852 41.2587 54.5023 41.4829 53.9662C41.7071 53.4301 41.8159 52.8529 41.8023 52.272C41.8131 51.705 41.7084 51.1417 41.4944 50.6165C41.2804 50.0913 40.9617 49.6151 40.5577 49.2171C39.6967 48.4236 38.5601 47.9974 37.3897 48.0291Z" fill="#F24E1E"/>
</svg>
